<svg xmlns="http://www.w3.org/2000/svg" width="1245.18" height="1454.49" viewBox="0 0 1245.18 1454.49"><defs><style>.cls-1{fill:#fff;}</style></defs><title>Asset 2</title><g id="Layer_2" data-name="Layer 2"><g id="Layer_1-2" data-name="Layer 1"><path class="cls-1" d="M968.65,658.41H879.36C868.5,526.59,761.58,440.85,667.2,427.28v462c-17.68,6-59.35,7.66-88.61.55V426.69c-58.28,10.82-106.93,37.56-146.38,80.76-39,42.69-60.38,93.24-66,150.9H277c8.73-102.81,52.12-187.07,133.23-251.06,106.88-84.33,254.5-96.82,372.21-33.7C895.52,434.22,955.64,530.79,968.65,658.41Z"/><path class="cls-1" d="M366.22,701.8c7.53,72.72,38.77,132.84,95.54,178.77,48.55,39.29,104.73,58,167.15,56.66C760.46,934.41,869,831.38,879.29,701.77h89C959.69,804.48,916.36,888.7,835.6,952.64c-106.41,84.24-254.4,98.05-373.72,33.5C349.45,925.31,289.7,828.89,276.71,701.8Z"/><path class="cls-1" d="M879.91,388.1A400.23,400.23,0,0,0,792,329.63v-5.5c0-24.17.33-48.34-.18-72.49C790.2,174.57,731.58,106.06,656,91.26,561.83,72.84,473.1,135.37,456.08,227.32c-1.9,10.25-2.37,20.85-2.53,31.31-.36,23.47-.11,47-.11,71a398.3,398.3,0,0,0-87.56,58.21c-.17-1.86-.34-2.91-.34-4,0-43.49-1.09-87,.25-130.47C368.73,157.45,412.63,84.65,494.2,35,539,7.67,588.52-3.13,640.7.77c68.84,5.15,126.69,33.85,173.1,85,34.86,38.37,55.92,83.55,63.48,134.82a270.53,270.53,0,0,1,2.51,37.33c.3,41.82.11,83.65.12,125.47Z"/><path class="cls-1" d="M1031.65,1454.45h-63c5.54-15.7,10.93-31,16.38-46.36q39.32-110.64,78.64-221.28c5.3-14.91,14.2-21.41,29.92-21.5,15.47-.08,31,0,46.65,0,35,96.39,69.9,192.54,105,289.13h-63q-9.5-29.23-19.23-59.16H1050C1044,1414.86,1037.81,1434.64,1031.65,1454.45Zm115.2-108.29-40.38-122.83-40.38,122.83Z"/><path class="cls-1" d="M593.78,1454.49h-63q-9.57-29.41-19.31-59.36H398.66l-18.42,59.29h-63c3.33-9.49,6.47-18.56,9.69-27.61q42.32-119.1,84.65-238.19c6.32-17.76,14.25-23.32,33.13-23.32q21.26,0,42.49,0a17,17,0,0,1,1.69.28Q541.16,1309.54,593.78,1454.49Zm-98.37-108.32c-13.46-41-26.68-81.25-40.35-122.86-13.73,41.76-27,82.18-40.41,122.86Z"/><path class="cls-1" d="M.2,1216.63c0-8.41-.52-16.08.11-23.66,1.36-16.58,13.91-27.64,30.89-27.66q92.22-.06,184.45,0h14.79v51H146v238.06H86V1216.63Z"/><path class="cls-1" d="M742.58,1401h141v53.38H682.71v-5.25q0-126,0-252c0-19.29,12.52-31.76,31.91-31.83,9.14,0,18.29,0,28,0Z"/></g></g></svg>
